# xmcd
#
# Track frame offsets: 
#        150
#        14350
#        35222
#        53965
#        73470
#        92700
#        116252
#        134785
#        152910
#        165917
#        185545
#        201820
#        227845
#        251530
#
# Disc length: 3418 seconds
#
# Revision: 3
# Processed by: cddbd v1.5.2PL0 Copyright (c) Steve Scherf et al.
# Submitted via: ExactAudioCopy v0.99pb4
#
DISCID=c90d580e
DTITLE=Paul deLay Band - Heavy Rotation
DYEAR=2001
DGENRE=Blues
TTITLE0=Over Money
TTITLE1=So Near
TTITLE2=Givin' Up the Body
TTITLE3=Remember Me
TTITLE4=Love Grown Cold
TTITLE5=Wealthy Man
TTITLE6=It Isn't Easy Being Big
TTITLE7=I'll Quit You Tomorrow
TTITLE8=Jimmy Jones
TTITLE9=Ain't Feelin' That Love No More
TTITLE10=Rainy Marie
TTITLE11=Bess and Ernie's Rib Joint
TTITLE12=In the Pocket
TTITLE13=Cat's Away
EXTD=ID3G:   0
EXTT0=
EXTT1=
EXTT2=
EXTT3=
EXTT4=
EXTT5=
EXTT6=
EXTT7=
EXTT8=
EXTT9=
EXTT10=
EXTT11=
EXTT12=
EXTT13=
PLAYORDER=
